<?xml version="1.0" standalone="no"?>
<!DOCTYPE svg PUBLIC "-//W3C//DTD SVG 20010904//EN"
 "http://www.w3.org/TR/2001/REC-SVG-20010904/DTD/svg10.dtd">
<svg version="1.0" xmlns="http://www.w3.org/2000/svg"
 width="700.000000pt" height="700.000000pt" viewBox="0 0 700.000000 700.000000"
 preserveAspectRatio="xMidYMid meet">
<metadata>
Created by potrace 1.11, written by Peter Selinger 2001-2013
</metadata>
<g transform="translate(0.000000,700.000000) scale(0.100000,-0.100000)"
fill="#000000" stroke="none">
<path d="M3435 6758 c-175 -23 -198 -40 -603 -442 l-353 -351 -472 -1 c-260
-1 -493 -4 -519 -8 -212 -30 -400 -211 -439 -421 -7 -38 -12 -234 -13 -537
l-1 -477 -351 -353 c-291 -294 -356 -363 -382 -415 -69 -135 -83 -307 -34
-426 7 -16 12 -33 12 -38 0 -38 109 -160 414 -464 l341 -340 1 -470 c1 -259 4
-493 7 -522 23 -192 187 -382 372 -432 81 -21 130 -23 595 -25 l475 -2 350
-349 c376 -377 399 -395 534 -430 60 -15 170 -21 216 -11 92 19 170 53 228 98
23 17 191 181 374 362 l332 331 478 1 c303 1 500 6 538 13 192 35 361 197 411
392 14 55 17 135 18 552 l1 488 337 337 c185 186 352 361 371 390 109 161 118
367 24 547 -25 48 -101 130 -377 408 -190 191 -347 350 -350 353 -3 3 -6 216
-6 472 -2 508 -4 543 -34 625 -70 186 -233 318 -425 343 -33 4 -268 8 -522 8
-254 1 -464 3 -467 6 -3 3 -159 158 -348 346 -201 200 -363 352 -391 368 -70
41 -144 67 -206 72 -31 3 -60 6 -66 8 -5 1 -37 -1 -70 -6z"/>
</g>
</svg>
