<svg xmlns="http://www.w3.org/2000/svg" width="64" height="64" fill="none" viewBox="0 0 64 64">
  <path fill="#66C9FE" d="M55.2 2.39996H8.79999c-3.53462 0-6.4 2.86538-6.4 6.4V55.2c0 3.5346 2.86538 6.4 6.4 6.4H55.2c3.5346 0 6.4-2.8654 6.4-6.4V8.79996c0-3.53462-2.8654-6.4-6.4-6.4z"/>
  <path fill="#fff" d="M31.744 13.184c-10.848.8-18.208 10.976-16 22.176 2.336 11.776 15.024 17.648 26.144 12.08 1.76-.88 2.272-1.376 2.288-2.144 0-1.232-1.168-1.84-2.368-1.216a21.484 21.484 0 01-3.6 1.664c-8.976 2.976-17.76-2.128-19.328-11.248-1.728-10.08 4.672-18.32 14.24-18.32 2.9711-.043 5.8921.7677 8.416 2.336 1.44.8 2.56.384 2.608-.944.048-.88-.528-1.44-2.448-2.4-3.168-1.568-6.48-2.24-9.952-1.984z"/>
</svg>